<?xml version="1.0" standalone="no"?>
<!DOCTYPE svg PUBLIC "-//W3C//DTD SVG 20010904//EN"
 "http://www.w3.org/TR/2001/REC-SVG-20010904/DTD/svg10.dtd">
<svg version="1.0" xmlns="http://www.w3.org/2000/svg"
 width="508.000000pt" height="508.000000pt" viewBox="0 0 508.000000 508.000000"
 preserveAspectRatio="xMidYMid meet">
<metadata>
Created by potrace 1.14, written by Peter Selinger 2001-2017
</metadata>
<g transform="translate(0.000000,508.000000) scale(0.100000,-0.100000)"
fill="#000000" stroke="none">
<path d="M2163 3894 c-60 -22 -126 -85 -154 -146 l-24 -53 -3 -453 c-3 -424
-4 -453 -20 -446 -99 44 -161 58 -257 58 -158 0 -282 -51 -395 -164 -114 -113
-166 -254 -157 -420 13 -263 192 -465 458 -518 277 -54 561 130 634 413 13 50
15 164 15 763 0 559 3 703 13 699 6 -2 288 -105 625 -227 l612 -223 0 -472 0
-473 -77 30 c-205 80 -428 32 -589 -127 -304 -300 -167 -810 250 -930 81 -24
248 -17 331 13 152 56 278 183 336 342 l24 65 0 820 c0 765 -1 822 -18 852
-28 51 -77 102 -118 124 -21 10 -326 124 -676 251 -692 251 -714 257 -810 222z
m-349 -1339 c50 -21 113 -80 138 -129 13 -26 23 -68 26 -112 5 -83 -14 -137
-72 -202 -107 -118 -300 -116 -406 4 -55 63 -73 116 -68 198 3 39 12 86 22
103 38 75 111 133 191 154 40 11 124 3 169 -16z m1556 -571 c55 -30 105 -87
127 -147 18 -50 15 -156 -6 -202 -44 -97 -124 -154 -226 -163 -127 -10 -221
42 -275 152 -30 60 -32 72 -28 133 6 80 30 132 85 186 86 82 216 99 323 41z"/>
<path d="M4765 2997 c20 -49 28 -146 16 -198 -18 -81 -691 -1790 -722 -1836
-39 -55 -107 -107 -177 -134 -47 -17 -72 -20 -142 -16 -85 4 -91 6 -1460 541
-756 296 -1420 555 -1476 577 -165 64 -233 122 -280 237 -26 65 -41 53 -24
-21 17 -72 53 -144 97 -193 57 -63 108 -88 463 -230 47 -19 94 -39 105 -44 11
-5 72 -30 135 -56 213 -86 285 -116 326 -135 112 -50 360 -151 372 -152 6 0
12 -4 12 -9 0 -4 6 -8 14 -8 13 0 101 -36 238 -98 32 -14 64 -25 73 -25 8 0
15 -4 15 -8 0 -7 86 -44 92 -39 2 1 25 -10 52 -24 26 -14 53 -23 59 -19 5 3 7
1 4 -4 -4 -6 4 -14 18 -17 13 -3 37 -11 52 -18 15 -6 30 -12 33 -13 3 0 24
-11 48 -23 23 -12 42 -20 42 -18 0 3 30 -11 66 -30 36 -19 62 -29 58 -22 -4 7
2 5 13 -5 11 -9 23 -14 26 -10 4 3 7 -1 7 -10 0 -15 30 -24 63 -18 5 1 6 -3 2
-9 -3 -5 0 -10 8 -10 8 0 18 -8 21 -17 4 -10 4 -14 0 -10 -9 9 -37 -30 -30
-42 3 -4 -6 -6 -19 -3 -14 2 -25 0 -25 -7 0 -5 -6 -8 -14 -5 -18 7 -29 -25
-14 -43 9 -11 8 -13 -3 -11 -10 2 -13 -5 -12 -22 2 -23 2 -23 -6 -5 -14 29
-13 47 1 39 7 -5 8 -3 3 6 -6 10 -13 6 -27 -14 -11 -14 -23 -25 -26 -23 -7 4
-40 -26 -44 -40 -2 -5 -9 -7 -15 -5 -7 2 -13 -4 -13 -12 0 -8 -6 -16 -12 -19
-9 -3 -6 -14 11 -38 19 -26 20 -30 5 -18 -10 8 -28 15 -39 15 -11 -1 -24 4
-28 9 -5 6 -7 4 -4 -5 2 -8 9 -15 15 -15 14 0 14 -14 0 -35 -8 -12 -9 -12 -4
3 4 12 0 17 -13 17 -15 0 -18 -5 -13 -22 4 -17 2 -20 -11 -15 -9 3 -18 1 -21
-6 -3 -8 -5 -8 -5 2 -1 11 -4 11 -16 1 -13 -11 -13 -14 2 -26 15 -11 15 -13 3
-14 -13 0 -13 -1 0 -11 12 -9 10 -10 -8 -6 -19 5 -22 2 -17 -11 5 -14 4 -15
-6 -4 -7 6 -20 12 -28 12 -11 0 -10 -4 5 -15 18 -15 18 -15 0 -8 -15 5 -17 3
-11 -7 6 -10 4 -12 -8 -7 -15 6 -33 -18 -19 -26 4 -2 2 -2 -5 -1 -6 2 -14 -2
-16 -9 -3 -9 -9 -8 -23 3 -18 14 -18 14 -1 -6 21 -26 23 -41 1 -20 -12 13 -18
13 -28 3 -12 -10 -11 -13 5 -19 10 -4 19 -13 19 -20 0 -8 -3 -9 -8 -3 -10 14
-32 17 -32 4 0 -8 -5 -7 -15 1 -18 15 -24 11 -30 -19 -2 -12 0 -19 6 -16 5 4
9 13 9 21 0 12 2 12 14 2 14 -13 11 -32 -4 -23 -4 3 -10 1 -12 -5 -1 -5 -13
-11 -25 -13 -12 -2 -26 -7 -30 -12 -5 -4 -2 -5 5 -1 6 4 12 2 12 -5 0 -6 -8
-9 -20 -6 -13 3 -24 -3 -35 -20 -11 -16 -22 -22 -33 -18 -9 3 -13 3 -10 -1 4
-4 2 -16 -3 -27 -8 -15 -8 -22 2 -28 9 -6 4 -8 -16 -6 -25 2 -30 -2 -28 -18 1
-11 -10 -35 -24 -53 -21 -28 -27 -31 -41 -20 -10 8 -13 9 -9 1 4 -7 0 -13 -10
-16 -10 -2 513 -5 1162 -6 1007 -1 1190 1 1250 14 205 44 368 191 438 395 l22
65 3 1099 c1 716 -1 1103 -8 1111 -6 7 -6 15 1 22 7 7 6 12 -5 16 -11 4 -13 1
-9 -10 5 -13 2 -15 -12 -9 -11 4 -16 4 -13 0 13 -12 -12 -43 -30 -38 -15 5
-15 4 1 -6 14 -9 16 -15 6 -26 -6 -8 -18 -14 -26 -14 -11 0 -14 -7 -11 -25 6
-27 -6 -34 -16 -10 -3 8 -13 15 -23 15 -13 0 -14 -3 -5 -12 15 -15 16 -32 2
-23 -6 3 -13 -1 -16 -10 -4 -9 -13 -14 -20 -11 -9 3 -11 -1 -8 -12 5 -14 4
-15 -4 -2 -8 10 -7 19 1 29 12 14 13 17 15 59 1 12 7 22 13 22 5 0 7 -5 3 -12
-4 -7 -3 -8 5 -4 6 4 9 11 6 16 -3 4 2 13 10 20 17 14 20 30 4 30 -5 0 -8 -4
-5 -8 2 -4 -3 -13 -12 -18 -15 -10 -17 -5 -19 39 -1 27 -6 54 -12 60 -6 6 -11
19 -11 29 0 10 -7 30 -16 43 -9 14 -13 25 -10 25 4 0 -7 20 -24 45 -37 53 -44
57 -25 12z m237 -259 c-8 -8 -9 -4 -5 13 4 13 8 18 11 10 2 -7 -1 -18 -6 -23z
m-75 -123 c0 -8 -4 -12 -9 -9 -5 3 -6 10 -3 15 9 13 12 11 12 -6z m-82 -35 c3
-5 1 -10 -5 -10 -6 0 -8 -4 -5 -10 3 -5 -1 -10 -11 -10 -13 0 -14 3 -5 13 6 8
8 17 4 20 -3 4 -1 7 5 7 6 0 14 -4 17 -10z m-32 -55 c-3 -9 -8 -14 -10 -11 -3
3 -2 9 2 15 9 16 15 13 8 -4z m-1763 -1639 c0 -3 -4 -8 -10 -11 -5 -3 -10 -1
-10 4 0 6 5 11 10 11 6 0 10 -2 10 -4z m-105 -96 c3 -6 -1 -7 -9 -4 -18 7 -21
14 -7 14 6 0 13 -4 16 -10z m-80 -67 c-22 -15 -49 -18 -40 -3 4 6 10 8 15 5 4
-3 11 2 14 11 3 8 11 12 17 8 9 -5 6 -11 -6 -21z m-39 -35 c5 -7 3 -8 -6 -3
-10 6 -12 4 -6 -11 5 -14 4 -16 -5 -7 -6 6 -8 16 -5 22 9 14 13 14 22 -1z
m-39 -10 c-2 -7 2 -21 10 -30 13 -15 13 -16 -5 -11 -12 3 -19 12 -17 21 2 10
4 20 4 25 1 4 4 7 7 7 3 0 4 -6 1 -12z m-40 -103 c0 -8 -4 -12 -9 -9 -5 3 -6
10 -3 15 9 13 12 11 12 -6z m-27 -25 c-8 -5 -19 -10 -25 -10 -5 0 -3 5 5 10 8
5 20 10 25 10 6 0 3 -5 -5 -10z m-295 -250 c-3 -5 -10 -10 -16 -10 -5 0 -9 5
-9 10 0 6 7 10 16 10 8 0 12 -4 9 -10z m-30 -38 c-3 -3 -11 0 -18 7 -9 10 -8
11 6 5 10 -3 15 -9 12 -12z m-48 -10 c-10 -10 -14 -22 -10 -25 3 -4 1 -7 -5
-7 -7 0 -12 2 -12 5 0 11 25 45 34 45 5 0 2 -8 -7 -18z m-46 -35 c-10 -9 -11
-8 -5 6 3 10 9 15 12 12 3 -3 0 -11 -7 -18z m-33 -63 c-3 -14 -5 -12 -10 9 -3
19 -2 25 4 19 6 -6 8 -18 6 -28z"/>
<path d="M5031 2887 c-1 -10 -5 -16 -10 -12 -5 3 -12 1 -15 -4 -4 -5 -2 -12 3
-15 12 -8 34 20 28 36 -3 8 -6 6 -6 -5z"/>
<path d="M4981 2836 c-9 -11 -9 -16 1 -22 7 -4 10 -4 6 1 -4 4 -3 14 3 22 6 7
9 13 6 13 -2 0 -10 -6 -16 -14z"/>
<path d="M4925 2800 c-3 -5 -1 -10 4 -10 6 0 11 5 11 10 0 6 -2 10 -4 10 -3 0
-8 -4 -11 -10z"/>
<path d="M4926 2722 c-2 -4 4 -8 14 -8 10 0 16 4 14 8 -3 4 -9 8 -14 8 -5 0
-11 -4 -14 -8z"/>
<path d="M2896 894 c-20 -19 -20 -21 -1 -21 8 0 13 3 10 5 -3 3 0 11 6 19 16
18 4 16 -15 -3z"/>
<path d="M2965 880 c-3 -5 1 -10 9 -10 8 0 18 5 21 10 3 6 -1 10 -9 10 -8 0
-18 -4 -21 -10z"/>
<path d="M2856 849 c2 -4 -6 -10 -18 -12 -21 -4 -20 -4 3 -6 15 0 29 5 32 12
3 8 -1 14 -9 14 -7 0 -11 -4 -8 -8z"/>
<path d="M2806 802 c-3 -6 -1 -14 5 -17 14 -9 20 -2 10 14 -6 8 -11 9 -15 3z"/>
<path d="M2760 760 c-8 -6 -10 -10 -5 -10 6 0 1 -7 -9 -15 -11 -8 -15 -15 -9
-15 12 0 48 38 42 45 -3 2 -11 0 -19 -5z"/>
<path d="M2710 721 c0 -6 4 -13 10 -16 6 -3 7 1 4 9 -7 18 -14 21 -14 7z"/>
<path d="M2645 670 c-3 -5 -1 -10 4 -10 6 0 11 5 11 10 0 6 -2 10 -4 10 -3 0
-8 -4 -11 -10z"/>
<path d="M2725 661 c-6 -11 13 -26 22 -17 4 3 1 6 -6 6 -7 0 -9 5 -6 10 3 6 4
10 1 10 -3 0 -7 -4 -11 -9z"/>
<path d="M2599 617 c-13 -10 -14 -14 -3 -25 13 -12 16 -10 27 21 7 20 -1 21
-24 4z"/>
<path d="M2563 563 c7 -12 -14 -23 -42 -23 -10 0 -18 -6 -18 -14 0 -15 14 -17
32 -3 5 4 19 14 29 21 15 10 16 15 6 21 -8 5 -11 4 -7 -2z"/>
<path d="M2545 499 c-4 -6 -5 -12 -2 -15 2 -3 7 2 10 11 7 17 1 20 -8 4z"/>
<path d="M2516 453 c-6 -14 -5 -15 5 -6 7 7 10 15 7 18 -3 3 -9 -2 -12 -12z"/>
<path d="M2387 424 c-16 -18 -26 -39 -24 -46 4 -9 6 -7 6 3 1 19 47 53 61 44
5 -3 12 0 16 6 5 8 3 9 -6 4 -10 -6 -12 -4 -7 8 11 29 -16 18 -46 -19z"/>
<path d="M2283 319 c-2 -25 12 -32 27 -15 9 12 7 17 -7 25 -15 8 -19 6 -20
-10z"/>
<path d="M2247 289 c-4 -16 -3 -18 9 -8 16 13 19 29 5 29 -5 0 -11 -9 -14 -21z"/>
<path d="M2214 253 c5 -8 1 -13 -9 -13 -11 0 -15 -5 -12 -14 3 -7 0 -20 -6
-27 -10 -11 -9 -11 5 0 10 7 15 18 11 24 -4 6 0 8 9 4 17 -6 19 16 3 30 -4 4
-5 2 -1 -4z"/>
<path d="M2215 150 c-16 -7 -17 -9 -3 -9 9 -1 20 4 23 9 7 11 7 11 -20 0z"/>
<path d="M2086 135 c4 -8 8 -15 10 -15 2 0 4 7 4 15 0 8 -4 15 -10 15 -5 0 -7
-7 -4 -15z"/>
<path d="M2183 119 c11 -7 23 -7 28 -2 5 5 -3 9 -19 11 -24 1 -25 0 -9 -9z"/>
<path d="M2035 90 c-3 -5 -1 -10 4 -10 6 0 11 5 11 10 0 6 -2 10 -4 10 -3 0
-8 -4 -11 -10z"/>
</g>
</svg>
